<svg width="28" height="28" viewBox="0 0 28 28" fill="none" xmlns="http://www.w3.org/2000/svg">
<g filter="url(#filter0_d_1_2)">
<circle cx="14" cy="14" r="12" fill="#000"/>
<path d="M14 9.5C11.5 9.5 9.5 11.5 9.5 14C9.5 16.5 11.5 18.5 14 18.5C16.5 18.5 18.5 16.5 18.5 14C18.5 11.5 16.5 9.5 14 9.5ZM14 17C12.3 17 11 15.7 11 14C11 12.3 12.3 11 14 11C15.7 11 17 12.3 17 14C17 15.7 15.7 17 14 17Z" fill="#E50914"/>
</g>
<defs>
<filter id="filter0_d_1_2" x="0" y="0" width="28" height="28" filterUnits="userSpaceOnUse" color-interpolation-filters="sRGB">
<feFlood flood-opacity="0" result="BackgroundImageFix"/>
<feColorMatrix in="SourceAlpha" type="matrix" values="0 0 0 0 0 0 0 0 0 0 0 0 0 0 0 0 0 0 127 0"/>
<feOffset/>
<feGaussianBlur stdDeviation="1"/>
<feComposite in2="hardAlpha" operator="out"/>
<feColorMatrix type="matrix" values="0 0 0 0 0 0 0 0 0 0 0 0 0 0 0 0 0 0 0.2 0"/>
<feBlend mode="normal" in2="BackgroundImageFix" result="effect1_dropShadow_1_2"/>
<feBlend mode="normal" in="SourceGraphic" in2="effect1_dropShadow_1_2" result="shape"/>
</filter>
</defs>
</svg>