<svg width="28" height="28" viewBox="0 0 28 28" fill="none" xmlns="http://www.w3.org/2000/svg">
<g filter="url(#filter0_d_1_2)">
<circle cx="14" cy="14" r="12" fill="#000"/>
<path d="M21.5 8.5C20.8 8.8 20.1 9 19.3 9.1C20.1 8.6 20.7 7.8 21 6.9C20.3 7.4 19.5 7.7 18.6 7.9C17.9 7.1 16.8 6.7 15.8 7.1C14.7 7.6 14.2 8.9 14.7 10C12.7 9.9 10.9 9 9.6 7.6C9.1 8.4 9.3 9.4 10 10C9.4 10 8.8 9.8 8.3 9.5C8.3 10.4 8.9 11.2 9.8 11.4C9.2 11.6 8.6 11.5 8 11.3C8.5 12.1 9.3 12.7 10.2 12.7C9.4 13.3 8.3 13.5 7.2 13.3C8.1 13.9 9.2 14.2 10.3 14.2C15.8 14.2 19.2 10.1 19.2 6.5C19.2 6.4 19.2 6.3 19.2 6.2C20 5.7 20.7 5.1 21.5 4.5Z" fill="#E50914"/>
</g>
<defs>
<filter id="filter0_d_1_2" x="0" y="0" width="28" height="28" filterUnits="userSpaceOnUse" color-interpolation-filters="sRGB">
<feFlood flood-opacity="0" result="BackgroundImageFix"/>
<feColorMatrix in="SourceAlpha" type="matrix" values="0 0 0 0 0 0 0 0 0 0 0 0 0 0 0 0 0 0 127 0"/>
<feOffset/>
<feGaussianBlur stdDeviation="1"/>
<feComposite in2="hardAlpha" operator="out"/>
<feColorMatrix type="matrix" values="0 0 0 0 0 0 0 0 0 0 0 0 0 0 0 0 0 0 0.2 0"/>
<feBlend mode="normal" in2="BackgroundImageFix" result="effect1_dropShadow_1_2"/>
<feBlend mode="normal" in="SourceGraphic" in2="effect1_dropShadow_1_2" result="shape"/>
</filter>
</defs>
</svg>